<svg xmlns="http://www.w3.org/2000/svg" fill="#ffffff" viewBox="0 0 282 38" role="presentation" class="sc-jIRcFI eea-Dls"><path d="M227.4 25.2c-.9 3-3.6 5.8-6.4 6.5-2.1.3-3.6.1-4.7-.6-1.1-.8-1.8-2.1-2.1-3.4-.1-.4-.1-.9-.1-1.3 0-2.7 1.4-5.3 4.1-7.4 1.5-1.1 3.6-1.5 5.4-1.1 1 .2 2.4.9 3.3 2.5.5.9.7 2 .7 3 0 .7 0 1.3-.2 1.8m-105.3 0c-.8 3-3.4 5.8-6.1 6.4-2 .4-3.8.2-4.9-.5-1.1-.8-1.7-2.1-2.1-3.4-.1-.6-.1-.9-.1-1.3 0-2.7 1.4-5.3 4.1-7.4 1.5-1.1 3.6-1.5 5.4-1.1 1 .2 2.4.9 3.3 2.5.5.9.7 2 .7 3 0 .7-.1 1.3-.3 1.8m112.1-12c0-.2-.1-.3-.2-.5s-.3-.2-.6-.2h-3.7c-.3 0-.6.2-.7.6l-.3 1.4c-.8-.8-1.7-1.2-2.9-1.7l-.4-.2h-.1c-4.1-.9-8.2.3-11.5 3.5-1.7 1.6-2.9 3.4-3.8 5.3l3.7-20.3c0-.2 0-.4-.1-.5s-.3-.2-.4-.2h-5c-.2 0-.3.1-.4.2 0 0-15 20.1-17.4 22.8.9-3.3 4-22.3 4-22.3V1c0-.1 0-.3-.1-.4s-.3-.2-.4-.2h-5.3c-.2 0-.3.1-.4.2L163 30.2c-.4-4.3-2.4-9-2.4-9-3.3-6.9-10.6-9.2-14.9-5.5-.2.1-.5.2-.7.3 3.3-4.6 10.8-4.2 15.7 1.5 0 0 2.2 2.7 3.8 6.8.4-1.4.7-2.9.8-4.4-2.6-3.6-5.6-5.7-5.6-5.7-6.2-4.2-13.5-2.7-15.5 2.5-.2.3-.4.6-.5.9.6-5.6 7.3-9.1 14.3-6.7 0 0 3.4 1.3 6.9 4.1 0-.2-.1-.4-.2-.7-.4-1.5-.9-2.9-1.6-4.2-4-1.8-7.6-2.1-7.6-2.1-7.6-.5-13.3 4.8-12.1 10.6v.8c-2.6-5.2 1.5-11.9 9-13.3 0 0 3.5-.6 7.8 0-1.1-1.2-2.3-2.2-3.7-3.1-4.3.5-7.5 2-7.5 2-6.9 3.4-9.1 11-5.3 15.3.1.3.3.5.5.7-4.8-3.2-4.5-11.1 1.2-16.2 0 0 2.7-2.3 6.7-3.9-1.7-.5-3.4-.8-5.1-.8-3.4 2.6-5.3 5.4-5.3 5.4-4.3 6.5-2.5 14.2 3.1 16h.1c.2.1.3.2.5.3-5.7-.3-9.4-7.3-6.9-14.6 0 0 1.2-3.2 3.7-6.5-1.5.4-2.8.9-4.1 1.7-1.6 4-2 7.4-2 7.4-.5 7.7 4.7 13.4 10.3 12.3h.3c.2 0 .4 0 .6-.1-5.1 2.6-11.6-1.6-13.1-9.2 0 0-.6-3.4 0-7.7-1.2 1.2-2.3 2.5-3.2 4.1.5 4.2 2 7.3 2 7.3 3.4 7 10.9 9.3 15.2 5.3l.1-.1c.2-.1.4-.2.5-.4-3.1 4.9-10.9 4.7-15.9-1.2 0 0-2.5-3.3-3.8-7.1 0-.1-.1-.4-.3-.5-.2-.2-.4-.2-.6-.2h-3.8c-.3 0-.6.2-.8.6 0 0-.2.4-.3 1.3-.8-.8-1.8-1.2-2.7-1.6l-.5-.2c-4.1-1-8.2.3-11.5 3.5-2 1.8-3.4 4-4.2 6.4 0 0 0 .1-.1.2l1.7-9.3c0-.2 0-.4-.2-.6-.1-.2-.3-.3-.6-.3H101c-.4 0-.7.3-.7.6l-4.1 22.9c0 .2 0 .4.2.6.1.2.3.2.6.2h4.2c.4 0 .7-.1.7-.5l1.7-9.3c0 .1.1 2 .3 2.9.6 3.5 3.7 6.8 7 7.4 2.9.5 5.9-.2 9-2.1-.1.3-.2.8-.2.8v.1c0 .2 0 .3.1.4.1.2.4.2.6.2h3.7c.4 0 .7-.1.7-.5l3.3-18c2.5 3 5.7 5.5 5.7 5.5 6.2 4.2 13.5 2.6 15.5-2.6.2-.2.4-.5.5-.8-.6 5.6-7.3 9.1-14.3 6.6 0 0-3.1-1.2-6.4-3.8 0 .1.1.3.1.4.4 1.5 1 3 1.7 4.4 3.8 1.6 7.2 1.9 7.2 1.9 7.6.5 13.2-4.8 12.1-10.4v-.8c2.4 5.2-1.7 11.7-9.1 13.2 0 0-3.3.6-7.4 0 1 1.1 2.1 2 3.3 2.8 4.3-.5 7.5-2 7.5-2 6.7-3.3 9-10.6 5.5-15-.1-.3-.3-.6-.5-.9 4.6 3.3 4.3 11-1.4 16 0 0-2.8 2.3-6.9 4 1.6.5 3.3.9 5 1 3.5-2.7 5.6-5.7 5.6-5.7 4.3-6.5 2.5-14.2-3-16-.2-.2-.4-.3-.7-.4 5.8.3 9.4 7.3 6.9 14.6 0 0-1.2 3.5-4 7 .2 0 .4-.1.7-.2 1.4-.4 2.7-.9 4-1.5 1.7-4.1 2-7.7 2-7.7.5-7.6-4.5-13.2-10-12.4-.2 0-.5-.1-.7-.1h-.2c5.1-2.2 11.4 1.9 12.8 9.3 0 0 .9 3.5.2 7.7-.1.6-.4 1.5-.9 2.4-.1.3-.3.6-.5.9-.1.2-.1.4 0 .5.1.2.3.3.5.3h5.9c.2 0 .3-.1.4-.2 0 0 19.5-21.3 21.7-24-.9 4.5-2.6 15.4-4.2 23.5v.1c0 .1 0 .2.1.3s.3.2.4.2h4.6c.2 0 .3-.1.4-.2 0 0 15.7-21.2 18-24-1 4.5-2.6 15.5-4.2 23.5v.1c0 .1 0 .2.1.3s.3.2.4.2h4.6c.2 0 .5-.2.5-.4l1.7-9.9v.6c0 .9-.3 1.9-.2 2.8.6 3.5 3.7 6.8 7 7.4 2.9.5 5.9-.2 9-2.1-.1.3-.2.8-.2.8v.1c0 .2.1.3.2.5s.3.2.6.2h3.7c.4 0 .7-.1.7-.5l3.4-18.1zm26.5 21.5c-1.7-2.7-6.4-10.6-6.8-11.3.6-.7 6.5-8 7.7-9.4l-.5 2.8c0 .2 0 .4.2.6.1.2.3.3.6.3h2c-.3 1.2-2.6 13.1-3.2 17m14.4-22c-.1-.2-.3-.3-.6-.3h-4.2c.2-1.3 1.2-6.3 1.2-6.3V6c0-.2-.1-.3-.2-.5s-.3-.3-.6-.3h-4.2c-.4 0-.7.3-.7.6 0 0-1 5.6-1.2 6.6h-2.3c-.3 0-.5.1-.6.3-.1-.2-.3-.3-.6-.3h-4.8c-.2 0-.4.1-.5.2 0 0-3.4 4.3-5.4 6.5.6-3.5 2.4-13.1 2.4-13.1v-.1c0-.2-.1-.3-.2-.5s-.3-.3-.5-.3H248c-.4 0-.7.3-.7.6-.1.6-.7 3.3-1.2 6.6-.1-.2-.4-.3-.6-.3-1.7.1-3.6.8-5 1.7l.1-.5c0-.2 0-.4-.2-.6-.1-.2-.3-.2-.6-.2H236c-.3 0-.6.2-.7.6l-.1.6-4 22.3c0 .2 0 .4.2.6.1.2.4.2.6.2h3.6c.3 0 .6-.2.7-.6l2.8-13.8c.9-3.5 3.2-4.5 5.2-4.8.1 0 .5 0 .6-.1-1.4 8.4-3 18.3-3.1 18.5 0 .2 0 .4.2.6.1.2.3.3.6.3h4c.3 0 .6-.2.7-.5.1-.4 1.2-6.1 1.8-9.5 1.5 2.3 5.9 9.7 5.9 9.7.1.2.4.3.6.3h4.5c.1 0 .2-.1.2-.1.1.1.2.1.3.1h4.7c.3 0 .6-.2.7-.6 0 0 3.2-17.3 3.4-18.5h4.5c.4 0 .7-.3.7-.6l.6-3.7v-.1c.1-.3.1-.5-.1-.6M92.6 23.6c0 .7-.1 1.1-.2 1.6-.8 3-3.5 5.8-6.2 6.5-2.1.4-3.7.1-4.8-.6-1.1-.8-1.9-2.1-2.1-3.4-.1-.5-.1-.9-.1-1.3 0-2.7 1.5-5.4 4.2-7.4 1.5-1.1 3.6-1.5 5.4-1.1 1 .2 2.3.9 3.2 2.5.4.9.6 2 .6 3.2m-34.7-1.9c1.1-2.2 3.5-3.5 5.6-3.8 2.2-.2 3.2.4 4.2 1.2.9.9 1.3 1.7 1.4 2.6-1.3.1-9.5 0-11.2 0m42.6-16.1c-.1-.2-.3-.3-.6-.3h-3.7c-.3 0-.6.2-.7.6 0 0-1.3 6.4-1.7 8.5-.8-.8-1.8-1.2-2.7-1.6l-.4-.2h-.1c-4.1-.9-8.2.3-11.5 3.5-2 1.8-3.4 4-4.2 6.4-.1-2-.6-3.9-1.3-5.4V17c-2-3.3-5.2-4.9-9.5-4.7H64c-4.7.6-9.4 3.8-11.7 8.3 0 .1-.1.1-.1.2L55.6 1c0-.2 0-.4-.1-.5s-.3-.2-.4-.2h-4.9c-.2 0-.3.1-.4.2 0 0-15.2 20-17.5 22.7C33 19.9 36.2 1 36.2 1V.9c0-.1 0-.3-.1-.4s-.3-.2-.4-.2H31c-.2 0-.3.1-.4.2L.5 35.7c-.1.2-.2.4-.1.6s.3.4.5.4h6c.2 0 .3-.1.4-.2 0 0 19.1-21.9 21.3-24.7-.8 4.5-2.6 16.1-4.3 24.2v.1c0 .1 0 .2.1.3s.3.2.4.2h4.6c.2 0 .3-.1.4-.2 0 0 15.9-21.9 18.2-24.7-1 4.5-2.5 16.2-4.4 24.2v.1c0 .1 0 .2.1.3s.3.2.4.2h4.5c.2 0 .5-.2.5-.4l1.7-9.3c0 2 .4 4 1.2 5.5 1.7 3 4.7 4.7 8.2 4.9 5.1 0 10-3.1 12.2-7.8.1-.2.1-.5 0-.7s-.4-.3-.6-.3H68c-.2 0-.4.1-.5.2-1.8 2.1-3.9 3.2-6.1 3.2-2.2.1-4.2-1.2-5-3.3 0-.1-.1-.3-.1-.3-.1-.4-.2-.7-.2-1V27h17.3c.2 0 .4-.1.5-.2 0 .9.1 1.9.2 2.8.6 3.5 3.7 6.8 7 7.4 2.9.5 5.9-.2 9-2.1-.1.3-.2.8-.2.8v.1c0 .2.1.3.2.5s.3.2.6.2h3.7c.3 0 .6-.1.7-.5l5.5-30c0-.1 0-.3-.1-.4"></path><path d="M101.6 11.8h4.1c.3 0 .6-.4.7-.7l.9-4.9c0-.2 0-.4-.2-.6-.1-.2-.3-.3-.6-.3h-4.2c-.3 0-.6.3-.7.6l-.9 4.9c0 .2 0 .5.2.7.3.2.5.3.7.3m174.6-6.4h1.1c.4 0 .9-.1.9-.7 0-.3-.2-.6-.8-.6h-1.2zm0 2.8h-1V3.3h2.3c.3 0 1.8 0 1.8 1.5 0 .9-.7 1.2-.9 1.3l.9 2.1h-1.1l-.8-2h-1.2zm.9 1.3c2 0 3.7-1.7 3.7-3.8s-1.6-3.8-3.7-3.8c-2 0-3.7 1.7-3.7 3.8s1.6 3.8 3.7 3.8m0-8.4c2.5 0 4.5 2 4.5 4.6 0 2.5-2 4.6-4.5 4.6s-4.5-2.1-4.5-4.6 2-4.6 4.5-4.6"></path></svg>