<svg width="349" height="75" viewBox="0 0 349 75" fill="#ffffff" xmlns="http://www.w3.org/2000/svg">
<g clip-path="url(#clip0_296_2)">
<path d="M122.272 54.8394H117.462C117.487 54.2011 117.539 53.0011 116.047 53.0011C115.198 53.0011 114.272 53.5883 114.118 54.4819C113.886 55.6053 114.375 55.8351 117.513 57.367C120.754 58.95 121.346 60.584 120.934 62.7798C120.42 65.5372 118.259 68.5755 113.217 68.5755C107.712 68.5755 107.018 65.0011 107.481 62.5755L107.584 61.9628H112.42C112.008 64.1585 113.32 64.5415 113.938 64.5415C115.095 64.5415 115.944 63.5968 116.124 62.7287C116.356 61.4776 115.61 61.1713 112.909 59.9457C111.674 59.4096 108.587 58.0819 109.256 54.533C109.925 50.984 113.757 48.967 116.947 48.967C118.825 48.967 120.729 49.6564 121.706 51.1117C122.581 52.4904 122.426 53.767 122.272 54.8394ZM130.715 49.3245L129.841 54.0479H131.899L131.281 57.2649H129.223L127.191 68.2181H122.921L124.953 57.2649H122.844L123.461 54.0479H125.571L126.445 49.3245H130.715ZM148.737 54.0479L146.088 68.2181H141.818L142.1 66.6862H142.049C141.072 68.0649 139.168 68.7032 137.496 68.7032C132.969 68.7032 130.988 65.1798 131.734 61.1202C132.608 56.4734 136.518 53.5628 140.326 53.5628C142.666 53.5628 143.773 54.6862 144.133 55.5542H144.184L144.467 54.0479H148.737ZM136.004 61.1713C135.747 62.4989 136.313 64.7457 138.885 64.7457C141.56 64.7457 142.872 62.4989 143.129 61.1202C143.464 59.4096 142.641 57.5202 140.223 57.5202C137.779 57.5202 136.313 59.5628 136.004 61.1713ZM149.177 68.2181L151.826 54.0479H155.839L155.556 55.5542H155.608C156.097 54.8649 157.074 53.5628 159.543 53.5628L158.746 57.8266C156.765 57.8776 155.299 58.2862 154.888 60.4308L153.447 68.2181H149.177ZM167.693 49.3245L166.818 54.0479H168.876L168.259 57.2649H166.201L164.169 68.2181H159.899L161.931 57.2649H159.822L160.439 54.0479H162.548L163.423 49.3245H167.693ZM168.222 68.2181L171.747 49.3245H176.017L174.165 59.1798H174.216L179.155 54.0479H184.223L177.689 60.2776L181.419 68.2181H176.583L173.805 61.4011H173.753L172.493 68.2181H168.222ZM183.266 68.2181L186.79 49.3245H191.061L187.536 68.2181H183.266ZM208.273 54.0479L205.624 68.2181H201.354L201.637 66.6862H201.585C200.608 68.0649 198.704 68.7032 197.032 68.7032C192.505 68.7032 190.524 65.1798 191.27 61.1202C192.145 56.4734 196.055 53.5628 199.862 53.5628C202.202 53.5628 203.309 54.6862 203.669 55.5542H203.72L204.003 54.0479H208.273ZM195.54 61.1713C195.283 62.4989 195.849 64.7457 198.421 64.7457C201.096 64.7457 202.408 62.4989 202.665 61.1202C203 59.4096 202.177 57.5202 199.759 57.5202C197.315 57.5202 195.849 59.5628 195.54 61.1713ZM226.385 54.0479L223.736 68.2181H219.465L219.748 66.6862H219.697C218.719 68.0649 216.816 68.7032 215.144 68.7032C210.617 68.7032 208.636 65.1798 209.382 61.1202C210.256 56.4734 214.166 53.5628 217.973 53.5628C220.314 53.5628 221.42 54.6862 221.781 55.5542H221.832L222.115 54.0479H226.385ZM213.652 61.1713C213.395 62.4989 213.961 64.7457 216.533 64.7457C219.208 64.7457 220.52 62.4989 220.777 61.1202C221.112 59.4096 220.289 57.5202 217.871 57.5202C215.427 57.5202 213.961 59.5628 213.652 61.1713ZM226.825 68.2181L229.475 54.0479H233.488L233.205 55.5542H233.256C233.745 54.8649 234.722 53.5628 237.192 53.5628L236.394 57.8266C234.414 57.8776 232.947 58.2862 232.536 60.4308L231.095 68.2181H226.825Z" fill="white"/>
<path d="M281.328 30.9533C280.214 34.6382 276.874 38.0774 273.41 38.9372C270.812 39.3057 268.956 39.06 267.596 38.2003C266.235 37.2176 265.368 35.6208 264.997 34.024C264.874 33.5327 264.874 32.9185 264.874 32.4272C264.874 29.1108 266.606 25.9172 269.946 23.3378C271.802 21.9867 274.4 21.4953 276.627 21.9867C277.864 22.2323 279.596 23.0921 280.709 25.0574C281.328 26.1629 281.575 27.514 281.575 28.7423C281.575 29.6021 281.575 30.3391 281.328 30.9533ZM151.056 30.9533C150.066 34.6382 146.849 38.0774 143.509 38.8144C141.035 39.3057 138.808 39.06 137.447 38.2003C136.086 37.2176 135.344 35.6208 134.849 34.024C134.726 33.287 134.726 32.9185 134.726 32.4272C134.726 29.1108 136.457 25.9172 139.798 23.3378C141.654 21.9867 144.251 21.4953 146.478 21.9867C147.716 22.2323 149.447 23.0921 150.561 25.0574C151.179 26.1629 151.427 27.514 151.427 28.7423C151.427 29.6021 151.303 30.3391 151.056 30.9533ZM289.74 16.2136C289.74 15.9679 289.617 15.8451 289.493 15.5994C289.369 15.3538 289.122 15.3538 288.751 15.3538H284.173C283.802 15.3538 283.431 15.5994 283.307 16.0908L282.936 17.8104C281.946 16.8278 280.833 16.3364 279.348 15.7223L278.853 15.4766H278.73C273.657 14.3712 268.585 15.8451 264.502 19.7757C262.399 21.741 260.915 23.9519 259.801 26.2857L264.379 1.35114C264.379 1.10548 264.379 0.859815 264.255 0.736987C264.131 0.614154 263.884 0.491326 263.76 0.491326H257.575C257.327 0.491326 257.203 0.614154 257.079 0.736987C257.079 0.736987 238.522 25.4259 235.553 28.7423C236.667 24.6889 240.502 1.35114 240.502 1.35114V1.2283C240.502 1.10548 240.502 0.859815 240.378 0.736987C240.254 0.614154 240.007 0.491326 239.883 0.491326H233.326C233.079 0.491326 232.955 0.614154 232.831 0.736987L201.655 37.0948C201.16 31.8131 198.686 26.04 198.686 26.04C194.604 17.5647 185.572 14.7397 180.253 19.2844C180.005 19.4072 179.634 19.53 179.387 19.6529C183.469 14.0027 192.748 14.494 198.81 21.4953C198.81 21.4953 201.532 24.8117 203.511 29.8478C204.006 28.1282 204.377 26.2857 204.501 24.4432C201.284 20.0213 197.573 17.4419 197.573 17.4419C189.902 12.2831 180.871 14.1255 178.397 20.5127C178.149 20.8812 177.902 21.2497 177.778 21.6182C178.52 14.7397 186.809 10.4406 195.469 13.3885C195.469 13.3885 199.676 14.9853 204.006 18.4246C204.006 18.1789 203.882 17.9332 203.758 17.5647C203.264 15.7223 202.645 14.0027 201.779 12.4059C196.83 10.1949 192.377 9.82644 192.377 9.82644C182.974 9.21228 175.923 15.7223 177.407 22.8464V23.8291C174.19 17.4419 179.263 9.21228 188.541 7.49266C188.541 7.49266 192.871 6.75567 198.191 7.49266C196.83 6.01868 195.346 4.79039 193.614 3.68491C188.294 4.29906 184.335 6.14151 184.335 6.14151C175.799 10.3178 173.077 19.6528 177.778 24.9346C177.902 25.3031 178.149 25.5487 178.397 25.7944C172.458 21.8638 172.83 12.1602 179.881 5.89584C179.881 5.89584 183.222 3.07076 188.17 1.10548C186.067 0.491326 183.964 0.122833 181.861 0.122833C177.655 3.31642 175.304 6.75567 175.304 6.75567C169.984 14.7397 172.211 24.1976 179.139 26.4085H179.263C179.51 26.5314 179.634 26.6542 179.881 26.777C172.83 26.4085 168.252 17.8104 171.345 8.84378C171.345 8.84378 172.83 4.91322 175.923 0.859815C174.067 1.35114 172.458 1.96529 170.85 2.94793C168.871 7.86116 168.376 12.0374 168.376 12.0374C167.757 21.4953 174.19 28.4967 181.118 27.1455H181.49C181.737 27.1455 181.985 27.1455 182.232 27.0227C175.923 30.2163 167.881 25.0574 166.026 15.7223C166.026 15.7223 165.283 11.5461 166.026 6.26434C164.541 7.73833 163.18 9.33511 162.066 11.3004C162.685 16.4593 164.541 20.267 164.541 20.267C168.747 28.8652 178.026 31.6902 183.346 26.777L183.469 26.6542C183.717 26.5314 183.964 26.4085 184.088 26.1629C180.253 32.1815 170.603 31.9359 164.417 24.6889C164.417 24.6889 161.324 20.6355 159.716 15.9679C159.716 15.8451 159.592 15.4766 159.345 15.3538C159.097 15.1081 158.85 15.1081 158.602 15.1081H153.901C153.53 15.1081 153.159 15.3538 152.912 15.8451C152.912 15.8451 152.664 16.3364 152.54 17.4419C151.551 16.4593 150.314 15.9679 149.2 15.4766L148.582 15.231C143.509 14.0027 138.437 15.5994 134.354 19.53C131.88 21.741 130.148 24.4432 129.158 27.3912C129.158 27.3912 129.158 27.514 129.035 27.6368L131.138 16.2136C131.138 15.9679 131.138 15.7223 130.89 15.4766C130.766 15.231 130.519 15.1081 130.148 15.1081H124.952C124.457 15.1081 124.086 15.4766 124.086 15.8451L119.014 43.9731C119.014 44.2189 119.014 44.4646 119.261 44.7104C119.385 44.9557 119.632 44.9557 120.003 44.9557H125.199C125.694 44.9557 126.065 44.8333 126.065 44.3418L128.168 32.9185C128.168 33.0414 128.292 35.3752 128.54 36.4806C129.282 40.7797 133.117 44.8333 137.2 45.5701C140.787 46.184 144.499 45.3243 148.334 42.9906C148.21 43.3592 148.087 43.9731 148.087 43.9731V44.096C148.087 44.3418 148.087 44.4646 148.21 44.5875C148.334 44.8333 148.705 44.8333 148.953 44.8333H153.53C154.025 44.8333 154.396 44.7104 154.396 44.2189L158.479 22.1094C161.572 25.7944 165.53 28.8652 165.53 28.8652C173.201 34.024 182.232 32.0587 184.706 25.6715C184.954 25.4259 185.201 25.0574 185.325 24.6889C184.583 31.5674 176.294 35.8665 167.634 32.7957C167.634 32.7957 163.798 31.3218 159.716 28.1282C159.716 28.251 159.839 28.4967 159.839 28.6195C160.335 30.4619 161.077 32.3044 161.943 34.024C166.644 35.9893 170.85 36.3578 170.85 36.3578C180.253 36.9719 187.181 30.4619 185.82 23.5834V22.6008C188.789 28.988 183.717 36.9719 174.562 38.8144C174.562 38.8144 170.479 39.5514 165.407 38.8144C166.644 40.1657 168.005 41.2712 169.489 42.2537C174.809 41.6394 178.768 39.797 178.768 39.797C187.057 35.7437 189.902 26.777 185.572 21.3725C185.448 21.004 185.201 20.6355 184.954 20.267C190.645 24.3204 190.274 33.7784 183.222 39.92C183.222 39.92 179.757 42.7448 174.686 44.8333C176.665 45.4472 178.768 45.9387 180.871 46.0616C185.201 42.7448 187.799 39.06 187.799 39.06C193.119 31.0761 190.892 21.6182 184.088 19.4072C183.84 19.1615 183.593 19.0387 183.222 18.9159C190.397 19.2844 194.851 27.8825 191.758 36.8491C191.758 36.8491 190.274 41.1483 186.809 45.4472C187.057 45.4472 187.304 45.3243 187.676 45.2015C189.407 44.7104 191.016 44.096 192.624 43.3592C194.727 38.3231 195.098 33.9012 195.098 33.9012C195.717 24.5661 189.531 17.6876 182.727 18.6702C182.479 18.6702 182.108 18.5474 181.861 18.5474H181.614C187.923 15.8451 195.717 20.8812 197.449 29.9706C197.449 29.9706 198.562 34.2697 197.696 39.4285C197.573 40.1657 197.201 41.2712 196.583 42.3766C196.459 42.7448 196.212 43.1134 195.964 43.4821C195.841 43.7278 195.841 43.9731 195.964 44.096C196.088 44.3418 196.336 44.4646 196.583 44.4646H203.882C204.129 44.4646 204.253 44.3418 204.377 44.2189C204.377 44.2189 228.501 18.0561 231.223 14.7397C230.11 20.267 228.007 33.6555 226.027 43.6049V43.7278C226.027 43.8503 226.027 43.9731 226.151 44.096C226.275 44.2189 226.522 44.3418 226.646 44.3418H232.337C232.584 44.3418 232.708 44.2189 232.831 44.096C232.831 44.096 252.255 18.0561 255.1 14.6168C253.863 20.1442 251.884 33.6555 249.904 43.4821V43.6049C249.904 43.7278 249.904 43.8503 250.028 43.9731C250.152 44.096 250.399 44.2189 250.523 44.2189H256.214C256.461 44.2189 256.832 43.9731 256.832 43.7278L258.935 31.5674V32.3044C258.935 33.4099 258.564 34.6382 258.688 35.7437C259.43 40.0428 263.265 44.096 267.348 44.8333C270.936 45.4472 274.647 44.5875 278.482 42.2537C278.358 42.622 278.235 43.2363 278.235 43.2363V43.3592C278.235 43.6049 278.358 43.7278 278.482 43.9731C278.606 44.2189 278.853 44.2189 279.225 44.2189H283.802C284.297 44.2189 284.668 44.096 284.668 43.6049L288.874 21.3725L289.74 16.2136ZM322.525 42.6219C320.422 39.3057 314.607 29.6021 314.112 28.7423C314.855 27.8825 322.154 18.9159 323.638 17.1963L323.02 20.6355C323.02 20.8812 323.019 21.1268 323.267 21.3725C323.391 21.6182 323.638 21.741 324.009 21.741H326.484C326.113 23.2149 323.267 37.8318 322.525 42.6219ZM340.34 15.5994C340.216 15.3538 339.969 15.231 339.598 15.231H334.401C334.649 13.6342 335.886 7.49266 335.886 7.49266V7.36983C335.886 7.12417 335.762 7.00133 335.639 6.75567C335.515 6.51 335.268 6.38717 334.897 6.38717H329.7C329.206 6.38717 328.834 6.75567 328.834 7.12417C328.834 7.12417 327.597 14.0027 327.35 15.231H324.504C324.133 15.231 323.886 15.3538 323.762 15.5994C323.638 15.3538 323.391 15.231 323.02 15.231H317.081C316.834 15.231 316.587 15.3538 316.463 15.4766C316.463 15.4766 312.257 20.7583 309.782 23.4606C310.525 19.1615 312.751 7.36983 312.751 7.36983V7.247C312.751 7.00133 312.628 6.8785 312.504 6.63284C312.38 6.38717 312.133 6.26434 311.885 6.26434H306.813C306.318 6.26434 305.947 6.63284 305.947 7.00133C305.823 7.73833 305.081 11.0547 304.462 15.1081C304.339 14.8625 303.968 14.7397 303.72 14.7397C301.617 14.8625 299.267 15.7223 297.534 16.8278L297.658 16.2136C297.658 15.9679 297.658 15.7223 297.411 15.4766C297.287 15.231 297.039 15.231 296.668 15.231H291.967C291.596 15.231 291.225 15.4766 291.101 15.9679L290.978 16.7049L286.029 44.096C286.029 44.3418 286.029 44.5875 286.276 44.8333C286.4 45.0786 286.771 45.0786 287.018 45.0786H291.472C291.844 45.0786 292.215 44.8333 292.338 44.3418L295.802 27.3912C296.916 23.0921 299.761 21.8638 302.236 21.4953C302.359 21.4953 302.854 21.4953 302.978 21.3725C301.246 31.6902 299.267 43.8503 299.143 44.096C299.143 44.3418 299.143 44.5875 299.39 44.8333C299.514 45.0786 299.761 45.2015 300.132 45.2015H305.081C305.452 45.2015 305.823 44.9557 305.947 44.5875C306.071 44.096 307.432 37.0948 308.174 32.9185C310.029 35.7437 315.473 44.8333 315.473 44.8333C315.597 45.0786 315.968 45.2015 316.215 45.2015H321.783C321.906 45.2015 322.03 45.0786 322.03 45.0786C322.154 45.2015 322.278 45.2015 322.401 45.2015H328.216C328.587 45.2015 328.958 44.9557 329.082 44.4646C329.082 44.4646 333.04 23.2149 333.288 21.741H338.855C339.35 21.741 339.721 21.3725 339.721 21.004L340.464 16.4593V16.3364C340.587 15.9679 340.587 15.7223 340.34 15.5994ZM114.56 28.988C114.56 29.8478 114.436 30.3391 114.313 30.9533C113.323 34.6382 109.982 38.0774 106.642 38.9372C104.044 39.4285 102.065 39.06 100.704 38.2003C99.3431 37.2176 98.3531 35.6208 98.1059 34.024C97.9821 33.4099 97.9821 32.9185 97.9821 32.4272C97.9821 29.1108 99.8379 25.7944 103.178 23.3378C105.034 21.9867 107.632 21.4953 109.859 21.9867C111.096 22.2323 112.704 23.0921 113.817 25.0574C114.313 26.1629 114.56 27.514 114.56 28.988ZM71.6307 26.6542C72.9917 23.9519 75.9607 22.3551 78.5588 21.9867C81.2807 21.741 82.5178 22.4779 83.755 23.4606C84.8683 24.5661 85.3631 25.5487 85.4869 26.6542C83.8784 26.777 73.734 26.6542 71.6307 26.6542ZM124.333 6.8785C124.21 6.63284 123.962 6.51 123.591 6.51H119.014C118.643 6.51 118.271 6.75567 118.147 7.247C118.147 7.247 116.539 15.1081 116.045 17.6876C115.055 16.7049 113.817 16.2136 112.704 15.7223L112.209 15.4766H112.086C107.013 14.3712 101.941 15.8451 97.8583 19.7757C95.3841 21.9867 93.6521 24.6889 92.6622 27.6368C92.5388 25.1802 91.9198 22.8464 91.0541 21.004V20.8812C88.5798 16.8278 84.6207 14.8625 79.3012 15.1081H79.1774C73.3626 15.8451 67.5483 19.7757 64.7026 25.3031C64.7026 25.4259 64.5788 25.4259 64.5788 25.5487L68.7855 1.2283C68.7855 0.982644 68.7855 0.736987 68.6617 0.614154C68.5379 0.491326 68.2903 0.368494 68.1669 0.368494H62.1046C61.8574 0.368494 61.7336 0.491326 61.6098 0.614154C61.6098 0.614154 42.805 25.1802 39.9597 28.4967C40.8259 24.4432 44.7845 1.2283 44.7845 1.2283V1.10548C44.7845 0.982644 44.7845 0.736987 44.6607 0.614154C44.5373 0.491326 44.2897 0.368494 44.166 0.368494H38.3514C38.104 0.368494 37.9803 0.491326 37.8566 0.614154L0.618319 43.8503C0.494605 44.096 0.370888 44.3418 0.494605 44.5875C0.618319 44.8333 0.865748 45.0786 1.11318 45.0786H8.53606C8.78353 45.0786 8.90725 44.9557 9.03096 44.8333C9.03096 44.8333 32.6605 17.9332 35.3823 14.494C34.3925 20.0213 32.1656 34.2697 30.0625 44.2189V44.3418C30.0625 44.4646 30.0625 44.5875 30.1862 44.7104C30.3099 44.8333 30.5574 44.9557 30.6811 44.9557H36.372C36.6194 44.9557 36.7431 44.8333 36.8668 44.7104C36.8668 44.7104 56.5374 17.8104 59.3831 14.3712C58.1459 19.8985 56.2902 34.2697 53.9393 44.096V44.2189C53.9393 44.3418 53.9393 44.4646 54.0631 44.5875C54.1869 44.7104 54.4345 44.8333 54.5579 44.8333H60.1254C60.3726 44.8333 60.744 44.5875 60.744 44.3418L62.8469 32.9185C62.8469 35.3752 63.3417 37.8318 64.3317 39.6742C66.4346 43.3592 70.146 45.4472 74.4764 45.693C80.7855 45.693 86.8478 41.8851 89.5693 36.1121C89.6931 35.8665 89.6931 35.498 89.5693 35.2523C89.4455 35.0067 89.0745 34.8838 88.827 34.8838H84.126C83.8784 34.8838 83.6312 35.0067 83.5074 35.1295C81.2807 37.7089 78.6826 39.06 75.9607 39.06C73.2389 39.1829 70.7646 37.5861 69.775 35.0067C69.775 34.8838 69.6512 34.6382 69.6512 34.6382C69.5274 34.1468 69.404 33.7783 69.404 33.4099V33.1642H90.8065C91.0541 33.1642 91.3012 33.0414 91.425 32.9185C91.425 34.024 91.5488 35.2523 91.6726 36.3578C92.415 40.6568 96.2502 44.7104 100.333 45.4472C103.92 46.0616 107.632 45.2015 111.467 42.8677C111.343 43.2363 111.22 43.8503 111.22 43.8503V43.9731C111.22 44.2189 111.343 44.3418 111.467 44.5875C111.591 44.8333 111.838 44.8333 112.209 44.8333H116.787C117.158 44.8333 117.529 44.7104 117.653 44.2189L124.457 7.36983C124.457 7.247 124.457 7.00133 124.333 6.8785Z" fill="white"/>
<path d="M125.694 14.494H130.767C131.138 14.494 131.509 14.0027 131.633 13.6342L132.746 7.61549C132.746 7.36983 132.746 7.12416 132.499 6.8785C132.375 6.63283 132.128 6.51 131.757 6.51H126.561C126.189 6.51 125.818 6.8785 125.694 7.247L124.581 13.2657C124.581 13.5113 124.581 13.8798 124.829 14.1255C125.2 14.3712 125.447 14.494 125.694 14.494ZM341.701 6.63283H343.062C343.557 6.63283 344.175 6.51 344.175 5.77305C344.175 5.40455 343.928 5.03605 343.186 5.03605H341.701V6.63283ZM341.701 10.0721H340.464V4.05339H343.309C343.68 4.05339 345.536 4.05339 345.536 5.89584C345.536 7.00133 344.67 7.36983 344.423 7.49266L345.536 10.0721H344.175L343.186 7.61549H341.701V10.0721ZM342.815 11.6689C345.289 11.6689 347.392 9.58077 347.392 7.00133C347.392 4.42189 345.413 2.33378 342.815 2.33378C340.34 2.33378 338.237 4.42189 338.237 7.00133C338.237 9.58077 340.216 11.6689 342.815 11.6689ZM342.815 1.35114C345.907 1.35114 348.382 3.80774 348.382 7.00133C348.382 10.0721 345.907 12.6515 342.815 12.6515C339.722 12.6515 337.247 10.0721 337.247 7.00133C337.247 3.93057 339.722 1.35114 342.815 1.35114Z" fill="white"/>
</g>
<defs>
<clipPath id="clip0_296_2">
<path d="M0 0H348.876V75H30C13.4315 75 0 61.5685 0 45V0Z" fill="white"/>
</clipPath>
</defs>
</svg>
