<svg xmlns="http://www.w3.org/2000/svg" viewBox="0 0 24 24"><path fill="#DF0000" fill-rule="evenodd" d="M7.9638 4c-.1799 0-.3421.0418-.4867.1253a.9573.9573 0 0 0-.347.3422C7.0433 4.612 7 4.7743 7 4.9542c0 .257.0964.482.2891.6747L13.8048 12l-6.5157 6.371c-.1927.1929-.2891.4178-.2891.6748 0 .1863.0433.3502.13.4915a.97.97 0 0 0 .347.3374c.1448.0835.307.1253.4869.1253.2635 0 .4852-.0932.665-.2795l7.1712-7.0072c.1092-.1029.188-.2137.2361-.3326A1.0036 1.0036 0 0 0 16.1084 12c0-.135-.0241-.2618-.0723-.3807-.0482-.1189-.1269-.2297-.2361-.3326L8.6289 4.2795C8.4489 4.0932 8.2273 4 7.9639 4Z"></path></svg>