<svg xmlns="http://www.w3.org/2000/svg" viewBox="0 0 24 24"><path d="M21.5 4H5.72l-.56-1a2 2 0 0 0-1.74-1H2.5a.5.5 0 0 0-.5.5v1a.5.5 0 0 0 .5.5h.92l4.28 7.49a2.19 2.19 0 0 0 .27.35l-1.86 3.7a.77.77 0 0 0 0 .71l.22.38A.76.76 0 0 0 7 17h12.5a.5.5 0 0 0 .5-.5v-1a.5.5 0 0 0-.5-.5H8.62l1-2.09a2.74 2.74 0 0 0 .64.09h6.23A2.94 2.94 0 0 0 19 11.49l2.35-4.13A4.76 4.76 0 0 0 22 5v-.5a.5.5 0 0 0-.5-.5Zm-4.22 6.5a1 1 0 0 1-.75.5H10.3a1 1 0 0 1-.86-.5L6.87 6h12.92c-.05.12-.09.25-.15.37ZM18 18a2 2 0 1 0 2 2 2 2 0 0 0-2-2ZM8 18a2 2 0 1 0 2 2 2 2 0 0 0-2-2Z"></path></svg>