<svg xmlns:xlink="http://www.w3.org/1999/xlink" xmlns="http://www.w3.org/2000/svg" width="32" height="32" viewBox="0 0 24 24"><path d="M12 2c5.52 0 10 4.48 10 10s-4.48 10-10 10S2 17.52 2 12 6.48 2 12 2ZM9.8787 8.4645c-.3905-.3906-1.0237-.3906-1.4142 0-.3906.3905-.3906 1.0237 0 1.4142L10.5858 12l-2.1213 2.1213c-.3906.3905-.3906 1.0237 0 1.4142.3905.3906 1.0237.3906 1.4142 0L12 13.4142l2.1213 2.1213c.3905.3906 1.0237.3906 1.4142 0 .3906-.3905.3906-1.0237 0-1.4142L13.4142 12l2.1213-2.1213c.3906-.3905.3906-1.0237 0-1.4142-.3905-.3906-1.0237-.3906-1.4142 0L12 10.5858 9.8787 8.4645Z"></path></svg>