<?xml version="1.0" encoding="UTF-8"?>
<svg id="Laag_1" data-name="Laag 1" xmlns="http://www.w3.org/2000/svg" viewBox="0 0 671.83 618.94">
  <defs>
    <style>
      .cls-1 {
        font-family: BasementGrotesque-Black, 'Basement Grotesque';
        font-size: 100px;
      }
    </style>
  </defs>
  <g id="_01_align_center" data-name=" 01 align center">
    <path d="M512,320.28l-46.93-213.33H46.93L.51,315.65l-.51,25.96c.08,20.59,7.66,40.45,21.33,55.85v157.48c0,35.35,28.65,64,64,64H426.67c35.35,0,64-28.65,64-64v-157.48c13.67-15.4,21.26-35.26,21.33-55.85v-21.33Zm-469.33,2.33l38.4-172.99h68.27v85.33h42.67v-85.33h128v85.33h42.67v-85.33h68.27l38.4,172.99v19.01c0,23.56-19.1,42.67-42.67,42.67h-21.33c-23.56,0-42.67-19.1-42.67-42.67h-42.67c0,23.56-19.1,42.67-42.67,42.67h-42.67c-23.56,0-42.67-19.1-42.67-42.67h-42.67c0,23.56-19.1,42.67-42.67,42.67h-21.33c-23.56,0-42.67-19.1-42.67-42.67v-19.01Zm384,253.67H85.33c-11.78,0-21.33-9.55-21.33-21.33v-131.03c6.95,1.92,14.12,2.94,21.33,3.03h21.33c24.6-.08,47.95-10.84,64-29.48,16.05,18.65,39.4,29.4,64,29.48h42.67c24.51,.01,47.83-10.54,64-28.95,16.17,18.41,39.49,28.96,64,28.95h21.33c7.21-.09,14.38-1.11,21.33-3.03v131.03c0,11.78-9.55,21.33-21.33,21.33Z"/>
  </g>
  <text class="cls-1" transform="translate(206.45 308.74)"><tspan x="0" y="0">m</tspan></text>
  <path d="M650.5,64h-42.67V21.33c0-11.78-9.55-21.33-21.33-21.33s-21.33,9.55-21.33,21.33v42.67h-42.67c-11.78,0-21.33,9.55-21.33,21.33s9.55,21.33,21.33,21.33h42.67v42.67c0,11.78,9.55,21.33,21.33,21.33s21.33-9.55,21.33-21.33v-42.67h42.67c11.78,0,21.33-9.55,21.33-21.33s-9.55-21.33-21.33-21.33Z"/>
</svg>